<?xml version="1.0" encoding="UTF-8"?>
<!DOCTYPE svg PUBLIC "-//W3C//DTD SVG 1.1//EN" "http://www.w3.org/Graphics/SVG/1.1/DTD/svg11.dtd">
<!-- Creator: CorelDRAW 2019 (64-Bit) -->
<svg xmlns="http://www.w3.org/2000/svg" xml:space="preserve" width="0.499996in" height="0.183331in" version="1.1" style="shape-rendering:geometricPrecision; text-rendering:geometricPrecision; image-rendering:optimizeQuality; fill-rule:evenodd; clip-rule:evenodd"
viewBox="0 0 499.99 183.33"
 xmlns:xlink="http://www.w3.org/1999/xlink"
 xmlns:xodm="http://www.corel.com/coreldraw/odm/2003">
 <defs>
  <style type="text/css">
   <![CDATA[
    .fil0 {fill:none}
    .fil2 {fill:#2A2928}
    .fil1 {fill:#FE007F}
   ]]>
  </style>
 </defs>
 <g id="Layer_x0020_1">
  <metadata id="CorelCorpID_0Corel-Layer"/>
  <g id="_2115812805424">
   <rect class="fil0" x="-0" width="499.99" height="183.33"/>
   <path class="fil1" d="M53 112.47c0.56,-1.09 1.87,-2.44 2.76,-3.8 0.72,-1.11 1.76,-3.54 2.56,-4.25 0.75,-3.34 2.83,-6.3 2.8,-13.06 -0.04,-10.5 -0.92,-7.67 -2.18,-14.11 -0.75,-0.68 -1.81,-2.9 -2.45,-3.94 -0.76,-1.24 -2.36,-2.99 -2.8,-4l-11.61 -11.09c-0.91,-0.77 -1.62,-1.34 -2.57,-2.09 -8,-6.3 -16.67,-14.85 -18.78,-25l-0.6 -1.89c-3.61,15.49 6.94,27.63 15.43,37.67 0.53,0.62 0.51,0.74 1.1,1.38 5.85,6.29 12.83,14.87 14.34,23.54 1.02,5.84 0.2,11.93 -1.79,16.18 -3.61,7.7 -10.94,13.74 -18.99,16.4 -0.4,0.13 -0.57,0.14 -0.94,0.3 -0.84,0.37 -0.43,0.18 -0.77,0.47 5.2,-0.11 10.02,-2.04 14.28,-4.35 3,-1.62 5.42,-3.87 7.98,-5.99 1.09,-0.9 1.26,-1.69 2.23,-2.39z"/>
   <path class="fil2" d="M169.15 85.46c0,-1.57 -0.31,-1.69 -0.31,-3.42l-7.14 0 0 30.43 7.45 0 0 -14.29c0,-11.03 8,-11.17 11.11,-7.07 2.02,2.67 1.31,11.37 1.31,16.39 0,0.94 -0.02,1.88 -0.03,2.82 -0.02,2.76 -0.59,2.15 7.79,2.15l0 -16.46c0,-8.23 12.11,-11.35 12.11,0.93l0 15.53 7.45 0 0 -18.32c0,-6.97 -4.59,-12.42 -11.8,-12.42 -8.9,0 -8.37,3.22 -11.18,5.28 -0.35,-1.53 -1.67,-2.94 -2.78,-3.74 -2.68,-1.93 -7.04,-2.26 -10.26,-0.92 -1.69,0.7 -2.62,1.84 -3.72,3.11z"/>
   <path class="fil2" d="M329.36 112.47l8.07 0 0 -18.63c1.81,1.22 9.51,9.99 11.41,11.88l4.17 4.22c2.5,3.13 1.67,2.53 6.47,2.53 1.96,-0 3.93,0 5.9,0 -0.13,-1.54 -1.35,-2.13 -2.25,-3.03l-5.12 -5.44c-1.61,-1.59 -12.02,-12.25 -13.12,-13.89 0.67,-1 1.52,-1.68 2.41,-2.56l9.48 -10.39c0.75,-0.89 1.63,-1.65 2.48,-2.49 0.79,-0.79 4.37,-4.61 4.57,-5.36 -13.43,0 -7.94,-1.87 -17.16,7.68l-9.23 10.33 0 -18.01 -8.07 0 0 43.17z"/>
   <path class="fil2" d="M410.08 97.26c0,-12.02 17.7,-11.97 17.7,0 0,12.04 -17.7,11.91 -17.7,0zm-7.45 -1.56c0,3.97 -0.2,5.43 1.37,9.19 3.42,8.18 14.54,10.84 21.17,6.21 0.69,-0.48 2.02,-2.35 2.54,-2.13 1.34,0.55 -0.74,3.51 1.31,3.51 4.07,0 6.52,0.6 6.52,-0.93l0 -28.57c0,-1.6 -3.07,-0.93 -7.45,-0.93 0,2.36 -0.28,2.5 -0.31,3.72 -3.3,-3.79 -5.87,-4.35 -10.87,-4.35 -7.7,0 -14.28,6.57 -14.28,14.28z"/>
   <path class="fil2" d="M248.94 97.57c0,-13.15 17.39,-11.26 17.39,-1.56l0 1.86c0,11.23 -17.39,11.24 -17.39,-0.31zm-7.76 -0.31c0,4.98 1.66,8.77 3.98,11.54 3.19,3.81 11.28,6.09 17.24,3.17 1.92,-0.94 2.97,-2.08 4.23,-3.53 0,1.89 0.31,2.27 0.31,4.04l7.14 0 0 -30.43c-8.8,0 -7.45,-0.77 -7.45,3.72 -1.52,-1.02 -1.62,-1.9 -3.61,-2.91 -5.83,-2.94 -13.99,-1.3 -17.89,3.14 -2.21,2.52 -3.96,6.64 -3.96,11.26z"/>
   <path class="fil2" d="M368.79 112.47l7.45 0 0 -14.91c0,-4.46 2.53,-8.7 6.83,-8.7 4.75,0 7.45,1.83 7.45,8.07l0 15.53 7.45 0 0 -18.01c0,-6.8 -4.23,-12.73 -11.49,-12.73 -2.8,0 -4.15,-0.04 -6.74,1.34 -1.82,0.97 -2.16,1.79 -3.51,2.7l0 -16.46 -7.45 0 0 43.17z"/>
   <path class="fil2" d="M58.93 77.26c2.3,-0.87 11.36,-0.35 14.73,1.85 2.11,1.39 2.99,2.37 4.21,4.48 2.72,4.74 2.59,14.81 -4.04,18.93 -4.17,2.59 -9.11,1.74 -15.51,1.89 -0.8,0.71 -1.83,3.14 -2.56,4.25 -0.89,1.37 -2.2,2.71 -2.76,3.8 9.3,0 17.42,1.19 24.98,-3 5.44,-3.02 9.79,-9.81 9.85,-18.11 0.06,-8.06 -2.98,-14.48 -9.26,-18.7 -6.36,-4.28 -14.61,-3.35 -24.87,-3.35 0.43,1.02 2.03,2.76 2.8,4 0.65,1.05 1.7,3.27 2.45,3.94z"/>
   <path class="fil2" d="M287.44 85.76c-0.28,-1.18 -0.35,-2.55 -0.62,-3.72l-6.83 0 0 30.43c9.48,0 7.76,1.59 7.76,-6.83 0,-4.95 -0.75,-11.48 1.78,-14.37 3.67,-4.19 12.88,-4.56 12.82,5.98l-0.01 12.12c-0.05,3.81 -1.13,3.1 7.77,3.1l0 -16.77c0,-3.36 -1.53,-7.47 -3.05,-9.37 -3.29,-4.1 -6.31,-4.6 -10.92,-4.6 -4.15,0 -6.2,2.37 -8.69,4.04z"/>
   <path class="fil2" d="M448.58 86.07c0,-1.89 -0.31,-2.26 -0.31,-4.04l-6.83 0 0 30.43 7.45 0 0 -15.53c0,-10.13 14.91,-12.52 14.91,0.62l0 14.91 7.45 0 0 -17.39c0,-6.74 -4.97,-13.35 -11.49,-13.35 -8.13,0 -7.82,2.1 -11.18,4.35z"/>
   <path class="fil2" d="M146.48 70.24l0 41.3c0,0.72 0.22,0.93 0.93,0.93l7.45 0 0 -43.17 -7.45 0c-0.72,0 -0.93,0.22 -0.93,0.93z"/>
   <path class="fil2" d="M223.79 85.14c0,-1.65 -0.21,-1.88 -0.31,-3.11l-7.14 0 0 30.43 7.76 0 0 -17.08c0,-5.43 6.12,-7.8 10.56,-5.9 0.91,0.39 1.52,0.99 2.48,1.24 0.52,-2.22 2.59,-4.61 3.11,-6.83 -2.51,-0.67 -1.22,-2.48 -9.31,-2.48 -1.79,0 -2.96,0.44 -4.11,1.17 -2.59,1.65 -1.62,2.05 -3.03,2.56z"/>
   <path class="fil2" d="M99.91 85.14c-0.34,-4.07 0.16,-3.11 -7.45,-3.11l0 30.43 7.45 0 0 -15.53c0,-8.08 6.94,-9.04 10.66,-7.56 1.36,0.54 1.22,1.04 2.38,1.34l3.22 -6.46c-2.38,-3.3 -11.37,-4.21 -14.91,-0.57 -0.78,0.81 -0.26,0.72 -1.35,1.45z"/>
   <path class="fil2" d="M13.91 55.33l0.32 7.44c0.09,3.04 0.33,4.95 -1.17,6.61 -1.28,1.43 -2.6,2.51 -4.08,3.69 -5.48,4.32 -4.07,6.26 0.89,9.59 -2.52,3.77 -0.8,1.52 -0.63,6.84 0.08,2.54 0.61,1.93 1.72,3.56 2.66,3.89 -3.88,10.61 11,9.45 5.67,-0.44 10.75,-3.72 18.33,0.65 1.59,0.92 2.59,1.63 3.54,2.98 0.78,1.1 0.19,0.71 1.13,1.05 -1.42,-2.69 -1.43,-3.73 -4.69,-6.17 -8.15,-6.1 -15.82,-0.17 -21.3,-0.73 -1.35,-0.13 -3.11,-0.75 -4.43,-0.86 -0.62,-2.65 -0.69,-3.01 -0.41,-5.3 0.13,-1.06 0.24,-1.72 -0.83,-2.73 -0.28,-0.26 -0.62,-0.46 -0.94,-0.67 0.52,-3.56 0.69,-1.77 -1.24,-4.66 0.39,-1.44 1.5,-2.18 1.87,-3.72 -0.81,-1.21 -3.89,-3.04 -4.97,-4.66 2.96,-4.42 8.69,-5.96 8.69,-10.87 0,-6.56 -0.61,-14.88 0.62,-20.18 -2.05,0.74 -3.42,8.19 -3.42,8.7z"/>
   <path class="fil2" d="M248.94 145.07l0 -1.55c0,-5.5 9.71,-4.66 13.66,-4.66l0 6.21c0,5.43 -13.66,5.56 -13.66,0zm2.48 -7.14c-0.47,0.41 -0.13,0.13 -0.72,0.52 -8.23,5.34 -2.04,12.53 3.21,12.53 9.94,0 6.6,-1.99 9.62,-2.8 0.4,1.72 4.04,4.76 4.04,0.93 -4.06,-0.09 -3.11,-5.43 -3.11,-10.25l2.17 0 0 -1.56c-8.1,0 -17.39,1.57 -17.39,-5.59 0,-1.4 1.14,-2.6 2.09,-3.19 2.27,-1.4 6.96,-1.43 9.09,-0.23 1.18,0.66 1.86,1.85 1.86,3.73l1.86 0c0,-7.97 -10.73,-6.8 -13.92,-4.92 -4.78,2.82 -3.51,9.72 1.19,10.81z"/>
   <path class="fil2" d="M86.87 132.34c0,9.05 17.39,4.31 17.39,11.8 0,6.21 -12.77,7 -16.15,0.62l-1.85 0.94c0.46,1.75 2.25,3.09 3.81,3.93 4.77,2.54 12.36,1.87 14.82,-1.44 1.77,-2.38 2.02,-5.94 -0.23,-8.18 -1.98,-1.98 -5.11,-2.43 -8.4,-3.09 -3.89,-0.77 -7.22,-1.13 -7.22,-4.89 0,-5.78 13.36,-5.86 14.59,-1.24 0.95,-0.22 1.2,-0.48 1.87,-0.93 -1.02,-1.53 -1.47,-2.16 -3.11,-3.1 -4.33,-2.48 -15.52,-1.66 -15.52,5.58z"/>
   <polygon class="fil2" points="169.77,150.66 171.63,150.66 171.63,139.49 187.47,139.49 187.47,150.66 189.33,150.66 189.33,125.82 187.47,125.82 187.47,137.62 171.63,137.62 171.63,125.82 169.77,125.82 "/>
   <path class="fil2" d="M355.44 141.04l-13.97 0c0.16,-7.02 10.67,-8.75 13.27,-2.71 0.51,1.19 0.24,1.73 0.7,2.71zm-16.15 0.93c0,4.69 3.71,9 8.07,9 2.17,0 3.61,0.01 5.6,-0.92 1,-0.46 2.5,-1.41 2.79,-2.5l-0.67 -0.89c-1.13,0.28 -1.67,1.02 -2.69,1.57 -3.99,2.16 -10.8,0.42 -10.93,-5.34l15.52 0 0 -2.8c0,-3.7 -3.75,-7.14 -7.45,-7.14 -4.21,0 -7.87,1.17 -9.51,5.39 -0.24,0.61 -0.73,2.98 -0.73,3.62z"/>
   <path class="fil2" d="M492.67 141.04l-13.97 0c0.54,-6.52 8.22,-7.95 11.89,-4.75 1.28,1.11 1.91,2.68 2.09,4.75zm-15.83 -0.31c0,2.87 -0.07,5.75 2.56,7.99 4.2,3.59 11.3,2.7 13.89,-1.16l-1.2 -0.98c-2.49,1.7 -2.93,2.54 -6.88,2.54 -3.55,0 -6.24,-2.84 -6.52,-6.21l12.11 0c1.02,0.01 3.72,0.37 3.72,-0.62 0,-13.68 -17.7,-10.7 -17.7,-1.55z"/>
   <path class="fil2" d="M424.36 141.04l-13.97 0c0.71,-8.48 13.78,-8.55 13.97,0zm-15.83 0.31c0,2.76 0.27,5.29 2.57,7.37 3.81,3.46 11.18,2.89 13.89,-1.16l-1.19 -0.98c-2.89,1.97 -2.97,2.54 -6.88,2.54 -3.55,0 -6.24,-2.88 -6.52,-6.21l12.42 0c1.48,0.01 3.41,0.45 3.41,-0.93 0,-12.86 -17.7,-11.06 -17.7,-0.62z"/>
   <path class="fil2" d="M195.23 141.97c0,-9.23 14.28,-9.85 14.28,0 0,9.94 -14.28,9.19 -14.28,0zm-1.86 0c0,2.39 1.04,4.85 2.24,6.14 2.9,3.12 7.66,3.8 11.22,1.73 1.25,-0.72 1.56,-1.54 2.68,-2.29l0 3.11 1.87 0 0 -17.39 -1.87 0 -0.28 3.07 -2.25 -2.1c-5.29,-3.41 -13.61,0.04 -13.61,7.72z"/>
   <path class="fil2" d="M310.11 149.11l-1.55 0c-7.65,0 -9.41,-14.29 1.24,-14.29 3.81,0 6.52,3.19 6.74,6.89 0.22,3.64 -2.78,7.39 -6.43,7.39zm-9.63 -8.39l0 2.48c0,3.76 4,7.76 7.76,7.76 2.08,0 3.72,0.09 5.46,-1.06 0.26,-0.17 1.24,-0.91 1.41,-1.07 0.84,-0.78 0.31,-0.63 1.2,-1.29l0 3.11 1.86 0 0 -17.39 -1.86 0 0 3.11c-0.44,-0.3 -0.28,-0.19 -0.67,-0.58l-0.45 -0.48c-5.21,-5.23 -14.72,-1.1 -14.72,5.41z"/>
   <path class="fil2" d="M384 137c0,4.37 0.17,7.16 3.49,10.48 5.53,5.53 15.52,3.84 18.24,-0.24l-1.17 -1.31c-3.03,2.09 -4.04,3.18 -8.45,3.18 -11.72,0 -13.78,-17.05 -4,-20.77 6.6,-2.51 9.7,0.72 12.39,2.14l1.19 -0.98c-3.3,-4.97 -15.91,-6.31 -20.35,2.63 -0.69,1.39 -1.33,2.91 -1.33,4.87z"/>
   <path class="fil2" d="M432.13 135.76l0 -2.48 -1.86 0 0 17.39 2.17 0 0 -10.87c0,-2.23 2.73,-4.97 4.96,-4.97 4.35,0 7.14,0.57 7.14,7.45l0 8.39 1.86 0c0,-5.46 0.85,-11.94 -1.8,-15.28 -1.96,-2.46 -4.59,-2.43 -7.2,-2.43 -2.8,0 -3.69,1.73 -5.28,2.8z"/>
   <path class="fil2" d="M134.07 135.76l0 -2.48 -1.86 0 0 17.39 2.17 0 0 -10.87c0,-2.23 2.73,-4.97 4.97,-4.97 3.93,0 7.14,0.54 7.14,6.83l0 9 1.87 0c0,-5.46 0.85,-11.94 -1.8,-15.28 -1.96,-2.46 -4.59,-2.43 -7.2,-2.43 -2.8,0 -3.69,1.73 -5.28,2.8z"/>
   <path class="fil2" d="M110.16 150.66l1.86 0 0 -8.07c1.16,0.31 6.31,5.69 7.76,6.84 1.56,1.24 0.94,1.24 3.73,1.24l-9.63 -9c0.89,-1.32 8.2,-7.65 8.69,-8.39 -2.19,0 -2.3,-0.38 -3.52,0.83 -0.78,0.78 -1.33,1.48 -2.17,2.19 -1.76,1.47 -3.84,3.85 -4.87,4.13l0 -14.59 -1.86 0 0 24.84z"/>
   <path class="fil2" d="M322.53 137c0,5.76 2.94,4.44 9.12,6.09 5.51,1.47 3.27,6.02 -1.05,6.02 -5.46,0 -4.08,-0.33 -7.76,-2.8l-0.98 1.19c3.72,5.46 14.96,4.37 14.96,-1.5 0,-6.89 -12.15,-3.43 -12.56,-8.12 -0.09,-1.05 0.23,-1.57 1.04,-2.16 1.91,-1.39 6.2,-1.2 8.21,-0.05 1.37,0.79 1.06,0.97 2.38,0.08 -1.07,-4.01 -13.35,-3.92 -13.35,1.24z"/>
   <path class="fil2" d="M281.54 150.66l15.83 0 0 -1.86 -13.66 0 0 -22.05c0,-0.72 -0.22,-0.93 -0.93,-0.93l-1.24 0 0 24.84z"/>
   <path class="fil2" d="M452.31 133.27l-3.73 0 0 1.55 3.73 0 0 11.49c0,4.91 4.85,5.6 8.38,3.72 -0.34,-0.64 -0.43,-0.74 -0.62,-1.55 -1.78,0.85 -5.9,1.65 -5.9,-2.48l0 -11.18 5.9 0 0 -1.55 -5.9 0 0 -5.28 -1.86 0 0 5.28z"/>
   <path class="fil2" d="M122.89 112.78c6.96,0 5.31,-8.69 0.93,-8.69 -2.8,0 -5.13,0.97 -5.13,4.35 0,2.37 1.5,4.35 4.2,4.35z"/>
   <path class="fil2" d="M465.66 135.76l0 -2.48 -1.86 0 0 17.39 1.86 0c0,-6.77 -1.51,-15.84 5.9,-15.84 1.57,0 1.65,0.5 3.11,0.62 0.31,-1.15 0.31,-0.4 0.62,-1.55 -1.28,-0.3 -2.02,-0.93 -3.73,-0.93 -3.81,0 -3.89,1.45 -5.9,2.8z"/>
   <path class="fil2" d="M363.2 135.76l0 -2.48 -1.86 0 0 17.39 1.86 0c0,-7.12 -1.6,-15.84 5.9,-15.84 1.57,0 1.65,0.5 3.1,0.62 0.19,-0.81 0.28,-0.91 0.62,-1.55 -1.66,-0.39 -5.19,-2.24 -8.55,0.76 -0.82,0.74 -0.13,0.41 -1.07,1.1z"/>
   <path class="fil2" d="M224.42 135.76l0 -2.48 -1.86 0 0 17.39 1.86 0c0,-7.55 -1.65,-15.84 5.9,-15.84 1.57,0 1.65,0.5 3.11,0.62l0.35 -1.23c-1.32,-1.74 -6.1,-2.2 -9.35,1.54z"/>
   <path class="fil2" d="M215.72 133.9l0 16.77 2.17 0 0 -16.77c0,-1.33 -2.17,-1.33 -2.17,0z"/>
   <polygon class="fil2" points="125.68,150.66 127.55,150.66 127.55,132.96 125.68,132.96 "/>
   <path class="fil2" d="M17.33 69.93c3.58,1.72 7.83,2.11 9.93,-1.86 -1.67,0 -2.42,0.39 -3.68,0.28 -1.09,-0.09 -2.39,-0.66 -3.46,-0.91 -0.52,0.35 -2.47,2 -2.79,2.48z"/>
   <path class="fil2" d="M152.07 154.08c1.89,0 1.68,-0.18 2.19,-1.54 0.51,-1.35 2.1,-4.37 -0.64,-4.37 -0.77,0 -1.06,0.45 -1.2,1.02 -0.35,1.42 0.29,1.44 0.35,1.67 0.36,1.28 -0.57,1.64 -0.7,3.22z"/>
   <path class="fil2" d="M125.37 126.44l0 0.62c-0.8,0 -0.04,1.21 0.31,1.86 2.2,0 3.22,-0.22 1.86,-2.8l-2.17 0.31z"/>
   <path class="fil2" d="M215.41 127.37c0,2.14 2.8,2.14 2.8,0 0,-1.68 -2.8,-1.68 -2.8,0z"/>
  </g>
 </g>
</svg>
