<?xml version="1.0" encoding="UTF-8"?>
<!DOCTYPE svg PUBLIC "-//W3C//DTD SVG 1.1//EN" "http://www.w3.org/Graphics/SVG/1.1/DTD/svg11.dtd">
<!-- Creator: CorelDRAW 2019 (64-Bit) -->
<svg xmlns="http://www.w3.org/2000/svg" xml:space="preserve" width="1.49649in" height="0.548709in" version="1.1" style="shape-rendering:geometricPrecision; text-rendering:geometricPrecision; image-rendering:optimizeQuality; fill-rule:evenodd; clip-rule:evenodd"
viewBox="0 0 1496.48 548.7"
 xmlns:xlink="http://www.w3.org/1999/xlink"
 xmlns:xodm="http://www.corel.com/coreldraw/odm/2003">
 <defs>
  <style type="text/css">
   <![CDATA[
    .fil0 {fill:none}
    .fil1 {fill:#FEFEFE}
   ]]>
  </style>
 </defs>
 <g id="Layer_x0020_1">
  <metadata id="CorelCorpID_0Corel-Layer"/>
  <g id="_2115812818736">
   <rect class="fil0" x="-0.01" y="-0" width="1496.48" height="548.71"/>
   <path class="fil1" d="M158.61 336.62c1.68,-3.26 5.59,-7.28 8.26,-11.37 2.17,-3.33 5.26,-10.6 7.65,-12.73 2.26,-10 8.47,-18.86 8.39,-39.07 -0.13,-31.41 -2.76,-22.95 -6.53,-42.22 -2.26,-2.03 -5.41,-8.67 -7.34,-11.81 -2.28,-3.71 -7.07,-8.95 -8.37,-11.98l-34.74 -33.18c-2.73,-2.31 -4.84,-4.01 -7.69,-6.25 -23.96,-18.83 -49.89,-44.44 -56.22,-74.82l-1.79 -5.64c-10.8,46.37 20.78,82.7 46.18,112.74 1.58,1.87 1.52,2.22 3.3,4.13 17.5,18.83 38.39,44.51 42.93,70.45 3.06,17.5 0.61,35.7 -5.36,48.45 -10.8,23.04 -32.74,41.13 -56.85,49.09 -1.2,0.39 -1.71,0.42 -2.81,0.91 -2.52,1.1 -1.3,0.54 -2.3,1.42 15.57,-0.35 29.98,-6.11 42.75,-13.01 8.97,-4.85 16.23,-11.59 23.89,-17.93 3.26,-2.7 3.75,-5.06 6.66,-7.17z"/>
   <path class="fil1" d="M506.27 255.77c0,-4.71 -0.93,-5.07 -0.93,-10.22l-21.37 0 0 91.08 22.3 0 0 -42.76c0,-33 23.96,-33.41 33.24,-21.16 6.05,7.99 3.94,34.02 3.93,49.05 0,2.82 -0.06,5.63 -0.08,8.44 -0.07,8.27 -1.78,6.43 23.31,6.43l0 -49.26c0,-24.65 36.24,-33.96 36.24,2.79l0 46.47 22.3 0 0 -54.83c0,-20.87 -13.74,-37.18 -35.31,-37.18 -26.63,0 -25.06,9.65 -33.45,15.8 -1.07,-4.57 -5,-8.79 -8.33,-11.19 -8.02,-5.77 -21.09,-6.77 -30.72,-2.77 -5.07,2.11 -7.83,5.51 -11.13,9.31z"/>
   <path class="fil1" d="M985.77 336.62l24.16 0 0 -55.76c5.43,3.64 28.46,29.91 34.14,35.56l12.46 12.63c7.48,9.38 4.99,7.58 19.37,7.57 5.89,-0 11.77,0 17.66,0 -0.38,-4.61 -4.04,-6.37 -6.74,-9.06l-15.33 -16.27c-4.82,-4.77 -35.97,-36.67 -39.26,-41.59 1.99,-2.97 4.55,-5.03 7.21,-7.66l28.38 -31.1c2.24,-2.68 4.87,-4.94 7.41,-7.46 2.37,-2.36 13.09,-13.78 13.69,-16.05 -40.18,0 -23.76,-5.6 -51.36,22.98l-27.63 30.92 0 -53.91 -24.16 0 0 129.19z"/>
   <path class="fil1" d="M1227.38 291.08c0,-35.99 52.97,-35.83 52.97,0 0,36.03 -52.97,35.67 -52.97,0zm-22.3 -4.65c0,11.89 -0.61,16.24 4.1,27.5 10.24,24.48 43.5,32.44 63.35,18.58 2.05,-1.43 6.05,-7.04 7.61,-6.39 4,1.66 -2.21,10.5 3.92,10.5 12.19,0 19.52,1.8 19.52,-2.79l0 -85.5c0,-4.79 -9.18,-2.79 -22.3,-2.79 0,7.06 -0.85,7.49 -0.93,11.15 -9.87,-11.35 -17.57,-13.01 -32.52,-13.01 -23.07,0 -42.75,19.68 -42.75,42.75z"/>
   <path class="fil1" d="M745.09 292.01c0,-39.35 52.04,-33.7 52.04,-4.65l0 5.57c0,33.61 -52.04,33.65 -52.04,-0.93zm-23.23 -0.93c0,14.91 4.97,26.26 11.91,34.55 9.56,11.42 33.77,18.21 51.62,9.47 5.75,-2.82 8.9,-6.23 12.67,-10.56 0,5.65 0.93,6.78 0.93,12.08l21.37 0 0 -91.08c-26.32,0 -22.3,-2.3 -22.3,11.15 -4.57,-3.06 -4.85,-5.7 -10.81,-8.7 -17.44,-8.79 -41.87,-3.88 -53.54,9.4 -6.63,7.54 -11.85,19.87 -11.85,33.69z"/>
   <path class="fil1" d="M1103.78 336.62l22.3 0 0 -44.61c0,-13.35 7.56,-26.02 20.44,-26.02 14.2,0 22.3,5.48 22.3,24.17l0 46.47 22.3 0 0 -53.91c0,-20.37 -12.65,-38.11 -34.39,-38.11 -8.38,0 -12.42,-0.13 -20.15,4 -5.44,2.91 -6.46,5.36 -10.51,8.08l0 -49.26 -22.3 0 0 129.19z"/>
   <path class="fil1" d="M176.38 231.23c6.89,-2.62 33.99,-1.06 44.07,5.55 6.32,4.14 8.95,7.09 12.6,13.43 8.16,14.18 7.75,44.33 -12.09,56.65 -12.5,7.76 -27.28,5.2 -46.44,5.67 -2.39,2.13 -5.48,9.41 -7.65,12.73 -2.67,4.09 -6.58,8.12 -8.26,11.37 27.82,0 52.13,3.56 74.76,-8.99 16.29,-9.04 29.3,-29.35 29.48,-54.19 0.17,-24.11 -8.91,-43.33 -27.74,-55.97 -19.03,-12.79 -43.72,-10.04 -74.44,-10.04 1.3,3.04 6.09,8.27 8.37,11.98 1.93,3.13 5.09,9.78 7.34,11.81z"/>
   <path class="fil1" d="M860.32 256.69c-0.82,-3.53 -1.04,-7.63 -1.86,-11.15l-20.44 0 0 91.08c28.37,0 23.23,4.76 23.23,-20.45 0,-14.83 -2.25,-34.35 5.32,-43 10.97,-12.53 38.54,-13.65 38.36,17.91l-0.02 36.27c-0.15,11.41 -3.4,9.28 23.25,9.28l0 -50.19c0,-10.07 -4.57,-22.35 -9.13,-28.04 -9.84,-12.28 -18.9,-13.78 -32.68,-13.78 -12.41,0 -18.56,7.09 -26.02,12.08z"/>
   <path class="fil1" d="M1342.6 257.62c0,-5.65 -0.93,-6.78 -0.93,-12.08l-20.44 0 0 91.08 22.3 0 0 -46.47c0,-30.33 44.61,-37.48 44.61,1.86l0 44.61 22.3 0 0 -52.05c0,-20.16 -14.87,-39.96 -34.38,-39.96 -24.34,0 -23.43,6.29 -33.46,13.01z"/>
   <path class="fil1" d="M438.43 210.22l0 123.61c0,2.14 0.65,2.79 2.79,2.79l22.3 0 0 -129.19 -22.3 0c-2.14,0 -2.79,0.65 -2.79,2.79z"/>
   <path class="fil1" d="M669.82 254.84c0,-4.94 -0.63,-5.63 -0.93,-9.3l-21.37 0 0 91.08 23.23 0 0 -51.12c0,-16.27 18.31,-23.35 31.61,-17.67 2.72,1.16 4.55,2.96 7.42,3.73 1.55,-6.66 7.74,-13.79 9.3,-20.45 -7.52,-2.01 -3.66,-7.43 -27.88,-7.43 -5.35,0 -8.86,1.31 -12.3,3.5 -7.76,4.92 -4.86,6.13 -9.07,7.65z"/>
   <path class="fil1" d="M299.04 254.84c-1.02,-12.18 0.47,-9.3 -22.3,-9.3l0 91.08 22.3 0 0 -46.47c0,-24.18 20.76,-27.05 31.89,-22.61 4.07,1.63 3.67,3.09 7.13,4.02l9.63 -19.35c-7.11,-9.87 -34.04,-12.6 -44.64,-1.72 -2.34,2.41 -0.77,2.17 -4.02,4.34z"/>
   <path class="fil1" d="M41.63 165.62l0.97 22.27c0.27,9.11 0.99,14.81 -3.5,19.8 -3.84,4.26 -7.78,7.52 -12.21,11.03 -16.4,12.94 -12.18,18.75 2.66,28.69 -7.55,11.29 -2.4,4.55 -1.88,20.47 0.23,7.6 1.83,5.78 5.15,10.65 7.96,11.64 -11.62,31.74 32.91,28.29 16.97,-1.32 32.17,-11.14 54.86,1.96 4.78,2.74 7.74,4.89 10.59,8.92 2.35,3.29 0.58,2.12 3.37,3.13 -4.24,-8.05 -4.26,-11.16 -14.04,-18.48 -24.38,-18.26 -47.36,-0.52 -63.75,-2.18 -4.03,-0.4 -9.3,-2.25 -13.27,-2.58 -1.85,-7.94 -2.06,-9 -1.22,-15.86 0.39,-3.18 0.72,-5.15 -2.48,-8.17 -0.83,-0.79 -1.86,-1.37 -2.8,-2 1.57,-10.65 2.06,-5.3 -3.72,-13.94 1.16,-4.31 4.5,-6.52 5.59,-11.15 -2.43,-3.63 -11.63,-9.11 -14.87,-13.94 8.86,-13.23 26.02,-17.85 26.02,-32.54 0,-19.63 -1.84,-44.53 1.86,-60.41 -6.13,2.22 -10.23,24.52 -10.23,26.03z"/>
   <path class="fil1" d="M745.09 434.21l0 -4.65c0,-16.44 29.07,-13.94 40.89,-13.94l0 18.59c0,16.23 -40.89,16.63 -40.89,0zm7.43 -21.38c-1.41,1.23 -0.37,0.38 -2.17,1.55 -24.63,15.99 -6.11,37.49 9.61,37.49 29.76,0 19.75,-5.94 28.81,-8.36 1.2,5.16 12.08,14.24 12.08,2.79 -12.15,-0.27 -9.3,-16.23 -9.3,-30.67l6.51 0 0 -4.65c-24.24,0 -52.04,4.7 -52.04,-16.73 0,-4.2 3.41,-7.78 6.26,-9.54 6.78,-4.19 20.85,-4.27 27.2,-0.7 3.53,1.98 5.56,5.56 5.56,11.17l5.57 0c0,-23.85 -32.13,-20.33 -41.65,-14.71 -14.31,8.45 -10.5,29.09 3.56,32.37z"/>
   <path class="fil1" d="M260.01 396.1c0,27.09 52.04,12.89 52.04,35.32 0,18.59 -38.22,20.96 -48.32,1.86l-5.56 2.83c1.39,5.23 6.74,9.26 11.42,11.76 14.27,7.61 37,5.6 44.37,-4.31 5.3,-7.12 6.04,-17.8 -0.69,-24.5 -5.95,-5.92 -15.29,-7.28 -25.15,-9.24 -11.63,-2.3 -21.6,-3.39 -21.6,-14.64 0,-17.29 39.99,-17.52 43.67,-3.72 2.84,-0.66 3.57,-1.44 5.57,-2.79 -3.06,-4.57 -4.39,-6.48 -9.3,-9.29 -12.98,-7.43 -46.46,-4.96 -46.46,16.72z"/>
   <polygon class="fil1" points="508.13,450.94 513.7,450.94 513.7,417.48 561.09,417.48 561.09,450.94 566.67,450.94 566.67,376.59 561.09,376.59 561.09,411.9 513.7,411.9 513.7,376.59 508.13,376.59 "/>
   <path class="fil1" d="M1063.83 422.13l-41.82 0c0.47,-21 31.94,-26.18 39.71,-8.11 1.52,3.55 0.7,5.18 2.11,8.11zm-48.32 2.79c0,14.06 11.11,26.95 24.16,26.95 6.5,0 10.81,0.02 16.76,-2.76 2.98,-1.39 7.47,-4.22 8.33,-7.46l-1.99 -2.68c-3.39,0.83 -5,3.06 -8.05,4.71 -11.95,6.47 -32.32,1.25 -32.7,-15.98l46.46 0 0 -8.37c0,-11.07 -11.22,-21.38 -22.3,-21.38 -12.6,0 -23.55,3.52 -28.47,16.13 -0.71,1.81 -2.19,8.92 -2.19,10.82z"/>
   <path class="fil1" d="M1474.56 422.13l-41.81 0c1.62,-19.5 24.59,-23.81 35.58,-14.21 3.81,3.33 5.72,8.02 6.24,14.21zm-47.39 -0.93c0,8.57 -0.2,17.21 7.67,23.93 12.58,10.73 33.83,8.09 41.58,-3.48l-3.57 -2.95c-7.46,5.08 -8.77,7.59 -20.59,7.59 -10.62,0 -18.68,-8.48 -19.52,-18.59l36.24 0c3.04,0.02 11.15,1.12 11.15,-1.86 0,-40.95 -52.97,-32.05 -52.97,-4.65z"/>
   <path class="fil1" d="M1270.12 422.13l-41.82 0c2.11,-25.39 41.25,-25.59 41.82,0zm-47.39 0.93c0,8.28 0.81,15.83 7.68,22.06 11.43,10.37 33.46,8.64 41.57,-3.47l-3.57 -2.95c-8.64,5.9 -8.89,7.59 -20.59,7.59 -10.63,0 -18.68,-8.61 -19.52,-18.59l37.18 0.01c4.43,0.04 10.21,1.35 10.21,-2.8 0,-38.48 -52.97,-33.11 -52.97,-1.86z"/>
   <path class="fil1" d="M584.33 424.91c0,-27.61 42.74,-29.48 42.74,0 0,29.78 -42.74,27.52 -42.74,0zm-5.58 0c0,7.18 3.11,14.52 6.7,18.39 8.67,9.34 22.93,11.36 33.59,5.18 3.74,-2.17 4.68,-4.59 8.03,-6.84l0 9.29 5.57 0 0 -52.05 -5.57 0 -0.84 9.21 -6.73 -6.28c-15.83,-10.22 -40.75,0.12 -40.75,23.1z"/>
   <path class="fil1" d="M928.15 446.29l-4.65 0c-22.9,0 -28.14,-42.75 3.72,-42.75 11.39,0 19.53,9.54 20.19,20.63 0.65,10.88 -8.33,22.12 -19.26,22.12zm-28.81 -25.09l0 7.44c0,11.26 11.97,23.23 23.23,23.23 6.24,0 11.14,0.28 16.35,-3.16 0.78,-0.52 3.7,-2.74 4.22,-3.22 2.5,-2.31 0.91,-1.88 3.59,-3.84l0 9.29 5.58 0 0 -52.05 -5.58 0 0 9.3c-1.33,-0.89 -0.82,-0.57 -1.99,-1.72l-1.35 -1.44c-15.61,-15.65 -44.05,-3.3 -44.05,16.17z"/>
   <path class="fil1" d="M1149.32 410.04c0,13.08 0.5,21.44 10.44,31.39 16.55,16.55 46.44,11.49 54.61,-0.71l-3.51 -3.93c-9.06,6.24 -12.09,9.5 -25.3,9.5 -35.07,0 -41.22,-51.04 -11.98,-62.16 19.76,-7.52 29.04,2.15 37.07,6.4l3.57 -2.95c-9.87,-14.88 -47.62,-18.87 -60.91,7.88 -2.07,4.17 -4,8.72 -4,14.59z"/>
   <path class="fil1" d="M1293.36 406.33l0 -7.44 -5.58 0 0 52.05 6.51 0 0 -32.53c0,-6.69 8.18,-14.87 14.87,-14.87 13.03,0 21.37,1.69 21.37,22.3l0 25.09 5.57 0c0,-16.36 2.55,-35.72 -5.4,-45.72 -5.87,-7.38 -13.74,-7.26 -21.55,-7.26 -8.39,0 -11.04,5.18 -15.8,8.37z"/>
   <path class="fil1" d="M401.26 406.33l0 -7.44 -5.58 0 0 52.05 6.51 0 0 -32.53c0,-6.69 8.18,-14.87 14.87,-14.87 11.76,0 21.37,1.61 21.37,20.44l0 26.95 5.57 0c0,-16.36 2.55,-35.72 -5.4,-45.72 -5.87,-7.38 -13.74,-7.26 -21.55,-7.26 -8.39,0 -11.04,5.18 -15.8,8.37z"/>
   <path class="fil1" d="M329.71 450.94l5.57 0 0 -24.17c3.48,0.93 18.91,17.02 23.22,20.46 4.67,3.73 2.8,3.7 11.17,3.7l-28.81 -26.95c2.65,-3.96 24.54,-22.87 26.02,-25.09 -6.54,0 -6.9,-1.13 -10.52,2.49 -2.33,2.33 -3.98,4.44 -6.48,6.53 -5.26,4.4 -11.48,11.53 -14.59,12.36l0 -43.68 -5.57 0 0 74.35z"/>
   <path class="fil1" d="M965.32 410.04c0,17.25 8.81,13.3 27.3,18.24 16.48,4.4 9.78,18.01 -3.14,18.01 -16.33,0 -12.22,-0.99 -23.23,-8.37l-2.94 3.57c11.15,16.35 44.76,13.07 44.76,-4.5 0,-20.63 -36.36,-10.26 -37.59,-24.3 -0.28,-3.13 0.67,-4.7 3.11,-6.47 5.7,-4.14 18.56,-3.59 24.57,-0.15 4.11,2.35 3.18,2.89 7.13,0.25 -3.21,-12.01 -39.96,-11.72 -39.96,3.72z"/>
   <path class="fil1" d="M842.66 450.94l47.39 0 0 -5.57 -40.89 0 0 -65.99c0,-2.14 -0.65,-2.79 -2.79,-2.79l-3.72 0 0 74.35z"/>
   <path class="fil1" d="M1353.76 398.89l-11.15 0 0 4.65 11.15 0 0 34.39c0,14.71 14.51,16.76 25.09,11.15 -1.02,-1.91 -1.29,-2.2 -1.86,-4.65 -5.34,2.56 -17.66,4.92 -17.66,-7.44l0 -33.46 17.66 0 0 -4.65 -17.66 0 0 -15.8 -5.57 0 0 15.8z"/>
   <path class="fil1" d="M367.8 337.55c20.85,0 15.89,-26.02 2.79,-26.02 -8.38,0 -15.37,2.92 -15.37,13.01 0,7.1 4.5,13.01 12.58,13.01z"/>
   <path class="fil1" d="M1393.71 406.33l0 -7.44 -5.57 0 0 52.05 5.57 0c0,-20.25 -4.52,-47.4 17.66,-47.4 4.7,0 4.94,1.5 9.29,1.86 0.92,-3.44 0.94,-1.2 1.86,-4.65 -3.81,-0.89 -6.06,-2.79 -11.15,-2.79 -11.42,0 -11.63,4.33 -17.66,8.37z"/>
   <path class="fil1" d="M1087.06 406.33l0 -7.44 -5.57 0 0 52.05 5.57 0c0,-21.3 -4.8,-47.4 17.65,-47.4 4.7,0 4.94,1.5 9.3,1.86 0.57,-2.44 0.84,-2.73 1.86,-4.65 -4.96,-1.16 -15.54,-6.7 -25.6,2.28 -2.46,2.2 -0.4,1.24 -3.21,3.3z"/>
   <path class="fil1" d="M671.68 406.33l0 -7.44 -5.57 0 0 52.05 5.57 0c0,-22.58 -4.94,-47.4 17.66,-47.4 4.7,0 4.93,1.5 9.29,1.86l1.04 -3.68c-3.96,-5.19 -18.26,-6.59 -27.99,4.61z"/>
   <path class="fil1" d="M645.66 400.75l0 50.18 6.5 0 0 -50.18c0,-3.96 -6.5,-3.96 -6.5,0z"/>
   <polygon class="fil1" points="376.17,450.94 381.75,450.94 381.75,397.96 376.17,397.96 "/>
   <path class="fil1" d="M51.85 209.29c10.72,5.15 23.45,6.31 29.74,-5.57 -5.01,0 -7.24,1.16 -11.02,0.86 -3.26,-0.26 -7.17,-1.98 -10.35,-2.72 -1.57,1.05 -7.4,5.99 -8.37,7.43z"/>
   <path class="fil1" d="M455.16 461.16c5.64,0 5.03,-0.53 6.56,-4.59 1.52,-4.06 6.3,-13.07 -1.91,-13.07 -2.31,0 -3.19,1.35 -3.6,3.04 -1.05,4.25 0.86,4.3 1.06,5 1.07,3.81 -1.71,4.91 -2.1,9.62z"/>
   <path class="fil1" d="M375.24 378.45l0 1.86c-2.4,0 -0.1,3.63 0.93,5.57 6.61,0 9.66,-0.64 5.57,-8.36l-6.5 0.93z"/>
   <path class="fil1" d="M644.73 381.23c0,6.4 8.36,6.4 8.36,0 0,-5.04 -8.36,-5.04 -8.36,0z"/>
  </g>
 </g>
</svg>
